<svg width="59" height="84" viewBox="0 0 59 84" fill="none" xmlns="http://www.w3.org/2000/svg">
<path d="M29.3922 0C13.185 0 0 13.2017 0 29.4295C0 45.1275 26.8714 80.8932 28.0161 82.4096C28.3377 82.8425 28.8529 83.0952 29.3924 83.0952C29.9318 83.0952 30.4471 82.8425 30.7687 82.4096C31.9132 80.8932 58.7847 45.1277 58.7847 29.4295C58.7844 13.2017 45.5994 0 29.3922 0ZM29.3922 45.0098C20.8131 45.0098 13.8316 38.0195 13.8316 29.4295C13.8316 20.8395 20.8131 13.8491 29.3922 13.8491C37.9713 13.8491 44.9528 20.8395 44.9528 29.4295C44.9528 38.0195 37.9713 45.0098 29.3922 45.0098Z" fill="#EB5757"/>
</svg>
