<svg width="59" height="84" viewBox="0 0 59 84" fill="none" xmlns="http://www.w3.org/2000/svg">
<path d="M29.3923 0C13.185 0 0 13.2017 0 29.4295C0 45.1275 26.8714 80.8932 28.0161 82.4097C28.3377 82.8425 28.853 83.0952 29.3924 83.0952C29.9319 83.0952 30.4471 82.8425 30.7687 82.4097C31.9132 80.8932 58.7848 45.1277 58.7848 29.4295C58.7845 13.2017 45.5995 0 29.3923 0ZM29.3923 45.0098C20.8132 45.0098 13.8316 38.0195 13.8316 29.4295C13.8316 20.8395 20.8132 13.8491 29.3923 13.8491C37.9714 13.8491 44.9529 20.8395 44.9529 29.4295C44.9529 38.0195 37.9714 45.0098 29.3923 45.0098Z" fill="url(#paint0_linear)"/>
<defs>
<linearGradient id="paint0_linear" x1="-10.9762" y1="-4.36855e-07" x2="73.263" y2="18.0903" gradientUnits="userSpaceOnUse">
<stop stop-color="#4BD8B5"/>
<stop offset="1" stop-color="#49D6DF"/>
</linearGradient>
</defs>
</svg>
